<svg width="50" height="50" viewBox="0 0 50 50" fill="none" xmlns="http://www.w3.org/2000/svg">
<path fill-rule="evenodd" clip-rule="evenodd" d="M25 0C38.8071 0 50 11.1929 50 25C50 38.8071 38.8071 50 25 50C11.1929 50 0 38.8071 0 25C0 11.1929 11.1929 0 25 0ZM25 4.16667C13.4941 4.16667 4.16667 13.4941 4.16667 25C4.16667 34.7222 10.8262 42.8889 19.8324 45.1874C19.8383 44.0446 19.8884 42.4529 19.9823 40.4146C17.8242 40.4891 16.4606 40.3393 15.8917 39.9652C15.0383 39.4041 14.184 37.6735 13.4259 36.454C12.6679 35.2344 10.9854 35.0416 10.306 34.769C9.62664 34.4963 9.45609 33.3849 12.1781 34.2254C14.9002 35.0659 15.0329 37.3548 15.8917 37.89C16.7504 38.4252 18.8033 38.191 19.734 37.7623C20.6645 37.3335 20.596 35.7372 20.762 35.1048C20.9298 34.6325 20.4901 34.4543 20.2992 34.3994L20.216 34.3787C19.3076 34.3787 14.5351 33.3408 13.2242 28.7193C11.9133 24.0978 13.602 21.0771 14.5028 19.7785C15.1033 18.9128 15.0502 17.0678 14.3434 14.2433C16.9097 13.9154 18.89 14.7231 20.2846 16.6667C20.2859 16.6778 22.1128 15.5803 25 15.5803C27.8873 15.5803 28.9116 16.4743 29.7021 16.6667C30.4925 16.8591 31.1248 13.2646 36.0069 14.2433C34.9876 16.2467 34.134 18.75 34.7855 19.7785C35.437 20.8071 37.994 24.0777 36.4233 28.7193C35.3761 31.8137 33.3178 33.7002 30.2481 34.3787C29.896 34.491 29.7201 34.6723 29.7201 34.9223C29.7201 35.2974 30.1959 35.3383 30.8816 37.0954C31.2738 38.1009 31.3537 40.7083 31.1212 44.9176C39.6396 42.3054 45.8333 34.376 45.8333 25C45.8333 13.4941 36.5059 4.16667 25 4.16667Z" fill="#CBCE46"/>
</svg>
