<svg width="58" height="55" viewBox="0 0 58 55" fill="none" xmlns="http://www.w3.org/2000/svg">
<mask id="path-1-outside-1" maskUnits="userSpaceOnUse" x="0" y="0" width="58" height="55" fill="black">
<rect fill="white" width="58" height="55"/>
<path fill-rule="evenodd" clip-rule="evenodd" d="M5.00006 8.72892C4.98328 5.77862 8.25605 3.99533 10.7261 5.60889L22.5645 13.3425H34.8963L46.7347 5.60889C49.2048 3.99533 52.4775 5.77862 52.4607 8.72892L52.3801 22.8989C52.3911 23.0918 52.3966 23.2861 52.3966 23.4817V39.7367C52.3966 45.3364 47.8571 49.8759 42.2574 49.8759H15.2195C9.61977 49.8759 5.08029 45.3364 5.08029 39.7367V23.4817C5.08029 23.4068 5.0811 23.332 5.08272 23.2575L5.00006 8.72892Z"/>
</mask>
<path d="M10.7261 5.60889L8.15021 9.55195L8.15021 9.55195L10.7261 5.60889ZM5.00006 8.72892L9.70984 8.70213L5.00006 8.72892ZM22.5645 13.3425L19.9887 17.2856L21.1625 18.0524H22.5645V13.3425ZM34.8963 13.3425V18.0524H36.2983L37.4721 17.2856L34.8963 13.3425ZM46.7347 5.60889L49.3106 9.55195L49.3106 9.55195L46.7347 5.60889ZM52.4607 8.72892L57.1705 8.75572L57.1705 8.75571L52.4607 8.72892ZM52.3801 22.8989L47.6703 22.8721L47.6695 23.0189L47.6778 23.1654L52.3801 22.8989ZM5.08272 23.2575L9.79146 23.3597L9.79286 23.2952L9.79249 23.2307L5.08272 23.2575ZM13.3019 1.66583C7.6891 -2.0008 0.252149 2.05152 0.290289 8.75571L9.70984 8.70213C9.71441 9.50571 8.82299 9.99145 8.15021 9.55195L13.3019 1.66583ZM25.1404 9.39947L13.3019 1.66583L8.15021 9.55195L19.9887 17.2856L25.1404 9.39947ZM34.8963 8.63267H22.5645V18.0524H34.8963V8.63267ZM44.1589 1.66583L32.3204 9.39947L37.4721 17.2856L49.3106 9.55195L44.1589 1.66583ZM57.1705 8.75571C57.2086 2.05153 49.7717 -2.0008 44.1589 1.66584L49.3106 9.55195C48.6378 9.99146 47.7464 9.50571 47.751 8.70213L57.1705 8.75571ZM57.0899 22.9257L57.1705 8.75572L47.751 8.70213L47.6703 22.8721L57.0899 22.9257ZM57.1064 23.4817C57.1064 23.1971 57.0984 22.914 57.0824 22.6325L47.6778 23.1654C47.6837 23.2696 47.6867 23.3751 47.6867 23.4817H57.1064ZM57.1064 39.7367V23.4817H47.6867V39.7367H57.1064ZM42.2574 54.5857C50.4583 54.5857 57.1064 47.9376 57.1064 39.7367H47.6867C47.6867 42.7352 45.2559 45.166 42.2574 45.166V54.5857ZM15.2195 54.5857H42.2574V45.166H15.2195V54.5857ZM0.370435 39.7367C0.370435 47.9376 7.0186 54.5857 15.2195 54.5857V45.166C12.2209 45.166 9.79014 42.7352 9.79014 39.7367H0.370435ZM0.370435 23.4817V39.7367H9.79014V23.4817H0.370435ZM0.373974 23.1553C0.371617 23.2639 0.370435 23.3727 0.370435 23.4817H9.79014C9.79014 23.4409 9.79058 23.4002 9.79146 23.3597L0.373974 23.1553ZM0.290289 8.75571L0.372942 23.2843L9.79249 23.2307L9.70984 8.70213L0.290289 8.75571Z" fill="#e7b816" mask="url(#path-1-outside-1)"/>
</svg>
