<svg width="22" height="22" viewBox="0 0 22 22" fill="none" xmlns="http://www.w3.org/2000/svg">
<path fill-rule="evenodd" clip-rule="evenodd" d="M6.5 8C6.5 7.44772 6.05228 7 5.5 7H1.5C0.947715 7 0.5 7.44772 0.5 8V20.5C0.5 21.0523 0.947715 21.5 1.5 21.5H5.5C6.05228 21.5 6.5 21.0523 6.5 20.5V8ZM2.5 19.5V8.99996H4.5V19.5H2.5Z" fill="#CBCE46"/>
<path fill-rule="evenodd" clip-rule="evenodd" d="M6.5 3C6.5 1.34315 5.15685 0 3.5 0C1.84315 0 0.5 1.34315 0.5 3C0.5 4.65685 1.84315 6 3.5 6C5.15685 6 6.5 4.65685 6.5 3ZM2.5 3C2.5 2.44772 2.94772 2 3.5 2C4.05228 2 4.5 2.44772 4.5 3C4.5 3.55228 4.05228 4 3.5 4C2.94772 4 2.5 3.55228 2.5 3Z" fill="#CBCE46"/>
<path fill-rule="evenodd" clip-rule="evenodd" d="M9.5 21.5C8.9477 21.5 8.5 21.0523 8.5 20.5V13.5C8.5 9.91015 11.4102 7 15 7C18.5898 7 21.5 9.91015 21.5 13.5V20.5C21.5 21.0523 21.0523 21.5 20.5 21.5H17C16.4477 21.5 16 21.0523 16 20.5V13.4062C16 12.854 15.5523 12.4062 15 12.4062C14.4477 12.4062 14 12.854 14 13.4062V20.5C14 21.0523 13.5523 21.5 13 21.5H9.5ZM15 9C17.4853 9 19.5 11.0147 19.5 13.5V19.5H18V13.4062C18 11.7494 16.6569 10.4062 15 10.4062C13.3432 10.4062 12 11.7494 12 13.4062V19.5H10.5V13.5C10.5 11.0147 12.5147 9 15 9Z" fill="#CBCE46"/>
</svg>
