<svg width="54" height="42" viewBox="0 0 54 42" fill="none" xmlns="http://www.w3.org/2000/svg">
<path d="M51.1524 0C51.5144 0.00729911 51.8578 0.073468 52.2007 0.236565C52.5545 0.405722 52.8658 0.660592 53.1011 0.974332C53.2554 1.20426 53.2193 1.13526 53.1011 0.974332C53.4166 1.395 53.5882 1.91011 53.5882 2.43583C53.5873 2.30608 53.582 2.24977 53.5882 2.43583V38.9733C53.5882 40.3185 52.4977 41.4091 51.1524 41.4091H2.43583C1.09056 41.4091 0 40.3185 0 38.9733V2.43583C0 1.99975 0.1183 1.56674 0.340831 1.19275C0.794307 0.428656 1.57977 0.0172591 2.43583 0H51.1524ZM48.7166 7.30749L28.2556 22.6532C27.4762 23.2378 26.4336 23.2963 25.6015 22.8286L25.3326 22.6532L4.87166 7.30749V36.5374H48.7166V7.30749ZM9.74332 4.87166L26.7941 17.6598L43.8449 4.87166H9.74332Z" fill="#CBCE46"/>
</svg>
