<svg width="50" height="44" viewBox="0 0 50 44" fill="none" xmlns="http://www.w3.org/2000/svg">
<path fill-rule="evenodd" clip-rule="evenodd" d="M41.7282 4.50178C40.6073 3.02175 39.2619 1.85188 37.6724 1.07283C35.7949 0.152575 33.7205 -0.151658 31.5291 0.0684947C27.922 0.43087 25.3883 2.45772 23.9555 5.39724C22.797 7.7741 22.3738 10.6891 22.4618 13.7705C19.6668 14.7196 17.201 14.0967 14.9638 12.6684C12.2496 10.9357 9.95906 8.03933 8.3284 5.38138C7.84395 4.59173 6.93473 4.16774 6.01842 4.30419C5.10211 4.44064 4.35587 5.11116 4.12251 6.0077C2.96339 10.461 1.68092 16.3475 4.20227 22.8973C5.55655 26.4153 8.27528 29.3474 12.0865 31.7814C8.41837 33.2882 5.53202 33.6914 3.33195 33.2721C2.21649 33.0595 1.11189 33.6889 0.726057 34.7569C0.340228 35.8249 0.787533 37.0149 1.7813 37.5643C1.83414 37.5935 1.89527 37.6275 1.96443 37.666C3.3541 38.4396 7.985 41.0173 13.7355 42.6016C19.7121 44.2483 27.4023 44.9604 33.9556 40.866C46.0113 33.3335 45.9247 20.5541 45.8845 14.6271C45.8837 14.5204 45.883 14.4159 45.8824 14.3137C46.0172 14.0937 46.1852 13.8498 46.4053 13.5358L46.4464 13.4773C46.7835 12.9968 47.2189 12.3761 47.6198 11.617C48.4985 9.95278 49.1147 7.8228 49.1147 4.55651C49.1147 3.63853 48.5713 2.8076 47.7303 2.43958C46.8893 2.07155 45.9102 2.23623 45.2359 2.85913C43.8178 4.16915 42.6866 4.56364 41.7282 4.50178ZM35.6384 5.2227C34.6446 4.73559 33.4554 4.51977 31.9911 4.66688C30.1146 4.85539 28.9035 5.79392 28.1099 7.42213C27.2512 9.18372 26.8862 11.7975 27.1632 15.0634C27.2429 16.0023 26.7444 16.8956 25.9035 17.3208C20.8111 19.896 16.1677 18.92 12.477 16.5639C10.6007 15.3661 8.95553 13.8096 7.55747 12.1796C7.18698 15.042 7.28867 18.0506 8.51527 21.237C9.70922 24.3385 12.701 27.2701 18.1251 29.8267C18.9131 30.1981 19.4253 30.9811 19.4498 31.852C19.4742 32.7228 19.0069 33.5334 18.241 33.9485C15.8424 35.2485 13.5411 36.2698 11.3521 36.9681C12.4788 37.3909 13.6917 37.7958 14.9631 38.1461C20.4775 39.6654 26.5889 40.0193 31.5068 36.9466C41.3152 30.8182 41.2807 20.5274 41.2605 14.5005C41.2596 14.2362 41.2587 13.98 41.2587 13.7328C41.2587 13.3883 41.3358 13.0482 41.4841 12.7374C41.8327 12.0072 42.2661 11.3892 42.6031 10.9086L42.6212 10.8827C42.9828 10.367 43.2716 9.95409 43.533 9.45905C43.6222 9.29001 43.7116 9.10488 43.7979 8.8985C42.489 9.22947 41.1207 9.22444 39.7127 8.80383C39.1908 8.6479 38.7407 8.31258 38.4419 7.85707C37.5822 6.54626 36.637 5.71212 35.6384 5.2227Z" fill="#CBCE46"/>
</svg>
